<svg xmlns="http://www.w3.org/2000/svg" xmlns:xlink="http://www.w3.org/1999/xlink" version="1.1" width="256" height="256" viewBox="0 0 256 256" xml:space="preserve">
 <style>
    path {
      fill: currentColor
    }
  </style>
<defs>
</defs>
<g style="stroke: none; stroke-width: 0; stroke-dasharray: none; stroke-linecap: butt; stroke-linejoin: miter; stroke-miterlimit: 10; fill: none; fill-rule: nonzero; opacity: 1;" transform="translate(1.4065934065934016 1.4065934065934016) scale(2.81 2.81)" >
	<path d="M 79.209 11.829 H 68.296 V 6.793 c 0 -1.104 -0.896 -2 -2 -2 s -2 0.896 -2 2 v 5.036 H 25.704 V 6.793 c 0 -1.104 -0.896 -2 -2 -2 s -2 0.896 -2 2 v 5.036 H 10.791 C 4.841 11.829 0 16.669 0 22.62 v 51.796 c 0 5.95 4.841 10.791 10.791 10.791 h 68.418 c 5.95 0 10.791 -4.841 10.791 -10.791 V 22.62 C 90 16.669 85.159 11.829 79.209 11.829 z M 79.209 81.207 H 10.791 C 7.046 81.207 4 78.16 4 74.416 V 32.455 h 82 v 41.961 C 86 78.16 82.953 81.207 79.209 81.207 z" style="stroke: none; stroke-width: 1; stroke-dasharray: none; stroke-linecap: butt; stroke-linejoin: miter; stroke-miterlimit: 10; fill-rule: nonzero; opacity: 1;" transform=" matrix(1 0 0 1 0 0) " stroke-linecap="round" />
	<path d="M 73.267 52.652 h -2.839 v -4.381 h 6.096 c 1.104 0 2 -0.896 2 -2 s -0.896 -2 -2 -2 h -8.096 c -1.104 0 -2 0.896 -2 2 v 8.381 c 0 1.104 0.896 2 2 2 h 4.839 c 2.06 0 3.734 1.675 3.734 3.734 s -1.675 3.734 -3.734 3.734 h -4.839 c -1.104 0 -2 0.896 -2 2 s 0.896 2 2 2 h 4.839 c 4.265 0 7.734 -3.47 7.734 -7.734 S 77.531 52.652 73.267 52.652 z" style="stroke: none; stroke-width: 1; stroke-dasharray: none; stroke-linecap: butt; stroke-linejoin: miter; stroke-miterlimit: 10; fill-rule: nonzero; opacity: 1;" transform=" matrix(1 0 0 1 0 0) " stroke-linecap="round" />
	<path d="M 20.77 64.121 h -5.895 l 6.666 -9.37 c 1.416 -1.99 1.627 -4.597 0.552 -6.802 c -1.068 -2.19 -3.146 -3.562 -5.549 -3.67 c -4.078 -0.202 -7.545 3.114 -7.545 7.2 c 0 1.104 0.896 2 2 2 s 2 -0.896 2 -2 c 0 -1.769 1.439 -3.207 3.208 -3.207 l 0.148 0.003 c 1.334 0.06 1.943 1.019 2.143 1.428 c 0.439 0.901 0.359 1.922 -0.216 2.73 L 9.369 64.962 c -0.434 0.609 -0.491 1.411 -0.147 2.076 s 1.029 1.083 1.777 1.083 h 9.771 c 1.104 0 2 -0.896 2 -2 S 21.875 64.121 20.77 64.121 z" style="stroke: none; stroke-width: 1; stroke-dasharray: none; stroke-linecap: butt; stroke-linejoin: miter; stroke-miterlimit: 10; fill-rule: nonzero; opacity: 1;" transform=" matrix(1 0 0 1 0 0) " stroke-linecap="round" />
	<path d="M 37.004 44.271 h -2.39 c -3.841 0 -6.965 3.124 -6.965 6.965 v 9.919 c 0 3.841 3.125 6.966 6.965 6.966 h 2.39 c 3.841 0 6.965 -3.125 6.965 -6.966 v -9.919 C 43.969 47.396 40.845 44.271 37.004 44.271 z M 39.969 61.155 c 0 1.636 -1.33 2.966 -2.965 2.966 h -2.39 c -1.635 0 -2.965 -1.33 -2.965 -2.966 v -9.919 c 0 -1.635 1.33 -2.965 2.965 -2.965 h 2.39 c 1.635 0 2.965 1.33 2.965 2.965 V 61.155 z" style="stroke: none; stroke-width: 1; stroke-dasharray: none; stroke-linecap: butt; stroke-linejoin: miter; stroke-miterlimit: 10; fill-rule: nonzero; opacity: 1;" transform=" matrix(1 0 0 1 0 0) " stroke-linecap="round" />
	<path d="M 59.229 64.121 h -5.895 l 6.666 -9.37 c 1.416 -1.991 1.627 -4.598 0.552 -6.803 c -1.068 -2.189 -3.146 -3.561 -5.55 -3.669 c -0.112 -0.005 -0.224 -0.007 -0.337 -0.007 c -3.975 0 -7.208 3.233 -7.208 7.207 c 0 1.104 0.896 2 2 2 s 2 -0.896 2 -2 c 0 -1.769 1.439 -3.207 3.208 -3.207 l 0.148 0.003 c 1.335 0.06 1.943 1.019 2.143 1.428 c 0.439 0.901 0.359 1.922 -0.216 2.73 l -8.913 12.529 c -0.434 0.609 -0.49 1.411 -0.147 2.076 s 1.029 1.083 1.777 1.083 h 9.771 c 1.104 0 2 -0.896 2 -2 S 60.334 64.121 59.229 64.121 z" style="stroke: none; stroke-width: 1; stroke-dasharray: none; stroke-linecap: butt; stroke-linejoin: miter; stroke-miterlimit: 10; fill-rule: nonzero; opacity: 1;" transform=" matrix(1 0 0 1 0 0) " stroke-linecap="round" />
</g>
</svg>