<svg xmlns="http://www.w3.org/2000/svg" xmlns:xlink="http://www.w3.org/1999/xlink" version="1.1" width="256" height="256" viewBox="0 0 256 256" xml:space="preserve">
 <style>
    path {
      fill: currentColor
    }
  </style>
<defs>
</defs>
<g style="stroke: none; stroke-width: 0; stroke-dasharray: none; stroke-linecap: butt; stroke-linejoin: miter; stroke-miterlimit: 10; fill: none; fill-rule: nonzero; opacity: 1;" transform="translate(1.4065934065934016 1.4065934065934016) scale(2.81 2.81)" >
	<path d="M 83.247 13.625 h -9.953 V 9.819 c 0 -2.105 -1.713 -3.818 -3.818 -3.818 h -3.997 c -2.104 0 -3.817 1.713 -3.817 3.818 v 3.806 H 50.816 V 9.819 c 0 -2.105 -1.713 -3.818 -3.817 -3.818 h -3.998 c -2.105 0 -3.818 1.713 -3.818 3.818 v 3.806 H 28.339 V 9.819 c 0 -2.105 -1.713 -3.818 -3.818 -3.818 h -3.997 c -2.105 0 -3.818 1.713 -3.818 3.818 v 3.806 H 6.753 C 3.029 13.625 0 16.654 0 20.378 v 56.868 c 0 3.724 3.029 6.753 6.753 6.753 h 76.494 c 3.724 0 6.753 -3.029 6.753 -6.753 V 20.378 C 90 16.654 86.971 13.625 83.247 13.625 z M 83.247 79.999 H 6.753 C 5.235 79.999 4 78.764 4 77.246 V 31.472 h 82 v 45.774 C 86 78.764 84.765 79.999 83.247 79.999 z" style="stroke: none; stroke-width: 1; stroke-dasharray: none; stroke-linecap: butt; stroke-linejoin: miter; stroke-miterlimit: 10; fill-rule: nonzero; opacity: 1;" transform=" matrix(1 0 0 1 0 0) " stroke-linecap="round" />
	<path d="M 22.81 36.583 h -8.392 c -1.973 0 -3.579 1.605 -3.579 3.579 v 8.392 c 0 1.974 1.605 3.579 3.579 3.579 h 8.392 c 1.973 0 3.579 -1.605 3.579 -3.579 v -8.392 C 26.388 38.189 24.783 36.583 22.81 36.583 z" style="stroke: none; stroke-width: 1; stroke-dasharray: none; stroke-linecap: butt; stroke-linejoin: miter; stroke-miterlimit: 10; fill-rule: nonzero; opacity: 1;" transform=" matrix(1 0 0 1 0 0) " stroke-linecap="round" />
	<path d="M 49.196 36.583 h -8.392 c -1.973 0 -3.579 1.605 -3.579 3.579 v 8.392 c 0 1.974 1.605 3.579 3.579 3.579 h 8.392 c 1.973 0 3.578 -1.605 3.578 -3.579 v -8.392 C 52.774 38.189 51.169 36.583 49.196 36.583 z" style="stroke: none; stroke-width: 1; stroke-dasharray: none; stroke-linecap: butt; stroke-linejoin: miter; stroke-miterlimit: 10; fill-rule: nonzero; opacity: 1;" transform=" matrix(1 0 0 1 0 0) " stroke-linecap="round" />
	<path d="M 75.582 36.583 H 67.19 c -1.973 0 -3.578 1.605 -3.578 3.579 v 8.392 c 0 1.974 1.605 3.579 3.578 3.579 h 8.392 c 1.974 0 3.579 -1.605 3.579 -3.579 v -8.392 C 79.161 38.189 77.556 36.583 75.582 36.583 z" style="stroke: none; stroke-width: 1; stroke-dasharray: none; stroke-linecap: butt; stroke-linejoin: miter; stroke-miterlimit: 10; fill-rule: nonzero; opacity: 1;" transform=" matrix(1 0 0 1 0 0) " stroke-linecap="round" />
	<path d="M 22.81 59.061 h -8.392 c -1.973 0 -3.579 1.605 -3.579 3.579 v 8.392 c 0 1.973 1.605 3.578 3.579 3.578 h 8.392 c 1.973 0 3.579 -1.605 3.579 -3.578 V 62.64 C 26.388 60.666 24.783 59.061 22.81 59.061 z" style="stroke: none; stroke-width: 1; stroke-dasharray: none; stroke-linecap: butt; stroke-linejoin: miter; stroke-miterlimit: 10; fill-rule: nonzero; opacity: 1;" transform=" matrix(1 0 0 1 0 0) " stroke-linecap="round" />
	<path d="M 75.582 59.061 H 67.19 c -1.973 0 -3.578 1.605 -3.578 3.579 v 8.392 c 0 1.973 1.605 3.578 3.578 3.578 h 8.392 c 1.974 0 3.579 -1.605 3.579 -3.578 V 62.64 C 79.161 60.666 77.556 59.061 75.582 59.061 z" style="stroke: none; stroke-width: 1; stroke-dasharray: none; stroke-linecap: butt; stroke-linejoin: miter; stroke-miterlimit: 10; fill-rule: nonzero; opacity: 1;" transform=" matrix(1 0 0 1 0 0) " stroke-linecap="round" />
	<path d="M 51.272 62.67 c -0.908 -0.631 -2.153 -0.408 -2.784 0.499 l -4.409 6.336 l -2.459 -2.458 c -0.781 -0.781 -2.047 -0.781 -2.829 0 c -0.781 0.781 -0.781 2.048 0 2.828 l 4.149 4.148 c 0.377 0.377 0.886 0.586 1.414 0.586 c 0.059 0 0.118 -0.003 0.177 -0.008 c 0.59 -0.053 1.126 -0.363 1.464 -0.85 l 5.774 -8.298 C 52.402 64.547 52.179 63.301 51.272 62.67 z" style="stroke: none; stroke-width: 1; stroke-dasharray: none; stroke-linecap: butt; stroke-linejoin: miter; stroke-miterlimit: 10; fill-rule: nonzero; opacity: 1;" transform=" matrix(1 0 0 1 0 0) " stroke-linecap="round" />
</g>
</svg>